<mxfile host="app.diagrams.net" modified="2023-10-10T06:20:51.164Z" agent="Mozilla/5.0 (Windows NT 10.0; Win64; x64) AppleWebKit/537.36 (KHTML, like Gecko) Chrome/117.0.0.0 Safari/537.36" etag="UNSyj50q9iwOshRk3ckp" version="22.0.0" type="github" pages="2">
  <diagram name="Page-1" id="M669RmVmIvajdnt5grM8">
    <mxGraphModel dx="2100" dy="1084" grid="1" gridSize="10" guides="1" tooltips="1" connect="1" arrows="1" fold="1" page="1" pageScale="1" pageWidth="827" pageHeight="1169" math="0" shadow="0">
      <root>
        <mxCell id="0" />
        <mxCell id="1" parent="0" />
        <mxCell id="N3PtBMYw-amjRQk_lEWF-2" value="Admin" style="shape=umlActor;verticalLabelPosition=bottom;verticalAlign=top;html=1;outlineConnect=0;" vertex="1" parent="1">
          <mxGeometry x="20" y="547.5" width="125" height="250" as="geometry" />
        </mxCell>
        <mxCell id="N3PtBMYw-amjRQk_lEWF-3" value="&lt;font style=&quot;font-size: 11px;&quot;&gt;Input Data &lt;br&gt;Surat Masuk&lt;/font&gt;" style="ellipse;whiteSpace=wrap;html=1;" vertex="1" parent="1">
          <mxGeometry x="310" y="690" width="127.5" height="85" as="geometry" />
        </mxCell>
        <mxCell id="N3PtBMYw-amjRQk_lEWF-5" value="&lt;font style=&quot;font-size: 11px;&quot;&gt;Input Data &lt;br&gt;Surat Keluar&lt;/font&gt;" style="ellipse;whiteSpace=wrap;html=1;" vertex="1" parent="1">
          <mxGeometry x="310" y="788" width="127.5" height="85" as="geometry" />
        </mxCell>
        <mxCell id="N3PtBMYw-amjRQk_lEWF-6" value="&lt;span style=&quot;font-size: 11px;&quot;&gt;Edit Hapus&lt;br&gt;&lt;/span&gt;Surat Masuk" style="ellipse;whiteSpace=wrap;html=1;" vertex="1" parent="1">
          <mxGeometry x="310" y="883" width="127.5" height="85" as="geometry" />
        </mxCell>
        <mxCell id="N3PtBMYw-amjRQk_lEWF-7" value="&lt;span style=&quot;font-size: 11px;&quot;&gt;Edit Hapus&lt;br&gt;&lt;/span&gt;Surat Keluar" style="ellipse;whiteSpace=wrap;html=1;" vertex="1" parent="1">
          <mxGeometry x="310" y="988" width="127.5" height="85" as="geometry" />
        </mxCell>
        <mxCell id="N3PtBMYw-amjRQk_lEWF-8" value="&lt;span style=&quot;font-size: 11px;&quot;&gt;Laporan&lt;/span&gt;" style="ellipse;whiteSpace=wrap;html=1;" vertex="1" parent="1">
          <mxGeometry x="310" y="1088" width="127.5" height="85" as="geometry" />
        </mxCell>
        <mxCell id="N3PtBMYw-amjRQk_lEWF-9" value="&lt;span style=&quot;font-size: 11px;&quot;&gt;Log Out&lt;/span&gt;" style="ellipse;whiteSpace=wrap;html=1;" vertex="1" parent="1">
          <mxGeometry x="310" y="1188" width="127.5" height="85" as="geometry" />
        </mxCell>
        <mxCell id="N3PtBMYw-amjRQk_lEWF-11" value="" style="endArrow=none;html=1;rounded=0;entryX=0;entryY=0.5;entryDx=0;entryDy=0;" edge="1" parent="1" target="N3PtBMYw-amjRQk_lEWF-3">
          <mxGeometry width="50" height="50" relative="1" as="geometry">
            <mxPoint x="150" y="680" as="sourcePoint" />
            <mxPoint x="240" y="660" as="targetPoint" />
          </mxGeometry>
        </mxCell>
        <mxCell id="N3PtBMYw-amjRQk_lEWF-12" value="" style="endArrow=none;html=1;rounded=0;entryX=0;entryY=0.5;entryDx=0;entryDy=0;" edge="1" parent="1" target="N3PtBMYw-amjRQk_lEWF-5">
          <mxGeometry width="50" height="50" relative="1" as="geometry">
            <mxPoint x="150" y="680" as="sourcePoint" />
            <mxPoint x="240" y="660" as="targetPoint" />
          </mxGeometry>
        </mxCell>
        <mxCell id="N3PtBMYw-amjRQk_lEWF-13" value="" style="endArrow=none;html=1;rounded=0;entryX=0;entryY=0.5;entryDx=0;entryDy=0;" edge="1" parent="1" target="N3PtBMYw-amjRQk_lEWF-6">
          <mxGeometry width="50" height="50" relative="1" as="geometry">
            <mxPoint x="150" y="680" as="sourcePoint" />
            <mxPoint x="270" y="630" as="targetPoint" />
          </mxGeometry>
        </mxCell>
        <mxCell id="N3PtBMYw-amjRQk_lEWF-14" value="" style="endArrow=none;html=1;rounded=0;entryX=0;entryY=0.5;entryDx=0;entryDy=0;" edge="1" parent="1" target="N3PtBMYw-amjRQk_lEWF-7">
          <mxGeometry width="50" height="50" relative="1" as="geometry">
            <mxPoint x="150" y="680" as="sourcePoint" />
            <mxPoint x="220" y="690" as="targetPoint" />
          </mxGeometry>
        </mxCell>
        <mxCell id="N3PtBMYw-amjRQk_lEWF-15" value="" style="endArrow=none;html=1;rounded=0;entryX=0;entryY=0.5;entryDx=0;entryDy=0;" edge="1" parent="1" target="N3PtBMYw-amjRQk_lEWF-8">
          <mxGeometry width="50" height="50" relative="1" as="geometry">
            <mxPoint x="150" y="680" as="sourcePoint" />
            <mxPoint x="210" y="690" as="targetPoint" />
          </mxGeometry>
        </mxCell>
        <mxCell id="N3PtBMYw-amjRQk_lEWF-16" value="" style="endArrow=none;html=1;rounded=0;entryX=0;entryY=0.5;entryDx=0;entryDy=0;" edge="1" parent="1" target="N3PtBMYw-amjRQk_lEWF-9">
          <mxGeometry width="50" height="50" relative="1" as="geometry">
            <mxPoint x="150" y="680" as="sourcePoint" />
            <mxPoint x="290" y="700" as="targetPoint" />
          </mxGeometry>
        </mxCell>
        <mxCell id="N3PtBMYw-amjRQk_lEWF-22" value="&lt;span style=&quot;font-size: 11px;&quot;&gt;Login&lt;/span&gt;" style="ellipse;whiteSpace=wrap;html=1;" vertex="1" parent="1">
          <mxGeometry x="310" y="20" width="127.5" height="85" as="geometry" />
        </mxCell>
        <mxCell id="N3PtBMYw-amjRQk_lEWF-23" value="&lt;span style=&quot;font-size: 11px;&quot;&gt;Input Pengirim&lt;/span&gt;" style="ellipse;whiteSpace=wrap;html=1;" vertex="1" parent="1">
          <mxGeometry x="310" y="110" width="127.5" height="85" as="geometry" />
        </mxCell>
        <mxCell id="N3PtBMYw-amjRQk_lEWF-24" value="&lt;span style=&quot;font-size: 11px;&quot;&gt;Edit Hapus &lt;br&gt;Pengirim&lt;/span&gt;" style="ellipse;whiteSpace=wrap;html=1;" vertex="1" parent="1">
          <mxGeometry x="310" y="210" width="127.5" height="85" as="geometry" />
        </mxCell>
        <mxCell id="N3PtBMYw-amjRQk_lEWF-25" value="&lt;span style=&quot;font-size: 11px;&quot;&gt;Input Departemen&lt;/span&gt;" style="ellipse;whiteSpace=wrap;html=1;" vertex="1" parent="1">
          <mxGeometry x="310" y="300" width="127.5" height="85" as="geometry" />
        </mxCell>
        <mxCell id="N3PtBMYw-amjRQk_lEWF-26" value="&lt;span style=&quot;font-size: 11px;&quot;&gt;Edit &lt;br&gt;Hapus Departemen&lt;/span&gt;" style="ellipse;whiteSpace=wrap;html=1;" vertex="1" parent="1">
          <mxGeometry x="310" y="395" width="127.5" height="85" as="geometry" />
        </mxCell>
        <mxCell id="N3PtBMYw-amjRQk_lEWF-27" value="&lt;span style=&quot;font-size: 11px;&quot;&gt;Tambah User&lt;/span&gt;" style="ellipse;whiteSpace=wrap;html=1;" vertex="1" parent="1">
          <mxGeometry x="310" y="490" width="127.5" height="85" as="geometry" />
        </mxCell>
        <mxCell id="N3PtBMYw-amjRQk_lEWF-28" value="&lt;span style=&quot;font-size: 11px;&quot;&gt;Edit Hapus &lt;br&gt;User&lt;/span&gt;" style="ellipse;whiteSpace=wrap;html=1;" vertex="1" parent="1">
          <mxGeometry x="310" y="590" width="127.5" height="85" as="geometry" />
        </mxCell>
        <mxCell id="N3PtBMYw-amjRQk_lEWF-29" value="" style="endArrow=none;html=1;rounded=0;entryX=0;entryY=0.5;entryDx=0;entryDy=0;" edge="1" parent="1" target="N3PtBMYw-amjRQk_lEWF-28">
          <mxGeometry width="50" height="50" relative="1" as="geometry">
            <mxPoint x="150" y="680" as="sourcePoint" />
            <mxPoint x="320" y="743" as="targetPoint" />
          </mxGeometry>
        </mxCell>
        <mxCell id="N3PtBMYw-amjRQk_lEWF-30" value="" style="endArrow=none;html=1;rounded=0;entryX=0;entryY=0.5;entryDx=0;entryDy=0;" edge="1" parent="1" target="N3PtBMYw-amjRQk_lEWF-27">
          <mxGeometry width="50" height="50" relative="1" as="geometry">
            <mxPoint x="150" y="680" as="sourcePoint" />
            <mxPoint x="320" y="643" as="targetPoint" />
          </mxGeometry>
        </mxCell>
        <mxCell id="N3PtBMYw-amjRQk_lEWF-31" value="" style="endArrow=none;html=1;rounded=0;entryX=0;entryY=0.5;entryDx=0;entryDy=0;" edge="1" parent="1" target="N3PtBMYw-amjRQk_lEWF-26">
          <mxGeometry width="50" height="50" relative="1" as="geometry">
            <mxPoint x="150" y="680" as="sourcePoint" />
            <mxPoint x="320" y="543" as="targetPoint" />
          </mxGeometry>
        </mxCell>
        <mxCell id="N3PtBMYw-amjRQk_lEWF-32" value="" style="endArrow=none;html=1;rounded=0;entryX=0;entryY=0.5;entryDx=0;entryDy=0;" edge="1" parent="1" target="N3PtBMYw-amjRQk_lEWF-25">
          <mxGeometry width="50" height="50" relative="1" as="geometry">
            <mxPoint x="150" y="680" as="sourcePoint" />
            <mxPoint x="320" y="448" as="targetPoint" />
          </mxGeometry>
        </mxCell>
        <mxCell id="N3PtBMYw-amjRQk_lEWF-33" value="" style="endArrow=none;html=1;rounded=0;entryX=0;entryY=0.5;entryDx=0;entryDy=0;" edge="1" parent="1" target="N3PtBMYw-amjRQk_lEWF-24">
          <mxGeometry width="50" height="50" relative="1" as="geometry">
            <mxPoint x="150" y="680" as="sourcePoint" />
            <mxPoint x="320" y="353" as="targetPoint" />
          </mxGeometry>
        </mxCell>
        <mxCell id="N3PtBMYw-amjRQk_lEWF-34" value="" style="endArrow=none;html=1;rounded=0;entryX=0;entryY=0.5;entryDx=0;entryDy=0;" edge="1" parent="1" target="N3PtBMYw-amjRQk_lEWF-23">
          <mxGeometry width="50" height="50" relative="1" as="geometry">
            <mxPoint x="150" y="680" as="sourcePoint" />
            <mxPoint x="320" y="263" as="targetPoint" />
          </mxGeometry>
        </mxCell>
        <mxCell id="N3PtBMYw-amjRQk_lEWF-35" value="" style="endArrow=none;html=1;rounded=0;entryX=0;entryY=0.5;entryDx=0;entryDy=0;" edge="1" parent="1" target="N3PtBMYw-amjRQk_lEWF-22">
          <mxGeometry width="50" height="50" relative="1" as="geometry">
            <mxPoint x="150" y="680" as="sourcePoint" />
            <mxPoint x="320" y="163" as="targetPoint" />
          </mxGeometry>
        </mxCell>
        <mxCell id="N3PtBMYw-amjRQk_lEWF-36" value="End User" style="shape=umlActor;verticalLabelPosition=bottom;verticalAlign=top;html=1;outlineConnect=0;" vertex="1" parent="1">
          <mxGeometry x="690" y="538" width="125" height="250" as="geometry" />
        </mxCell>
        <mxCell id="N3PtBMYw-amjRQk_lEWF-40" value="" style="endArrow=none;html=1;rounded=0;entryX=1;entryY=0.5;entryDx=0;entryDy=0;" edge="1" parent="1" target="N3PtBMYw-amjRQk_lEWF-22">
          <mxGeometry width="50" height="50" relative="1" as="geometry">
            <mxPoint x="680" y="670" as="sourcePoint" />
            <mxPoint x="150" y="400" as="targetPoint" />
          </mxGeometry>
        </mxCell>
        <mxCell id="N3PtBMYw-amjRQk_lEWF-41" value="" style="endArrow=none;html=1;rounded=0;entryX=1;entryY=0.5;entryDx=0;entryDy=0;" edge="1" parent="1" target="N3PtBMYw-amjRQk_lEWF-23">
          <mxGeometry width="50" height="50" relative="1" as="geometry">
            <mxPoint x="680" y="670" as="sourcePoint" />
            <mxPoint x="448" y="73" as="targetPoint" />
          </mxGeometry>
        </mxCell>
        <mxCell id="N3PtBMYw-amjRQk_lEWF-42" value="" style="endArrow=none;html=1;rounded=0;entryX=1;entryY=0.5;entryDx=0;entryDy=0;" edge="1" parent="1" target="N3PtBMYw-amjRQk_lEWF-24">
          <mxGeometry width="50" height="50" relative="1" as="geometry">
            <mxPoint x="680" y="670" as="sourcePoint" />
            <mxPoint x="447" y="163" as="targetPoint" />
          </mxGeometry>
        </mxCell>
        <mxCell id="N3PtBMYw-amjRQk_lEWF-43" value="" style="endArrow=none;html=1;rounded=0;entryX=1;entryY=0.5;entryDx=0;entryDy=0;" edge="1" parent="1" target="N3PtBMYw-amjRQk_lEWF-25">
          <mxGeometry width="50" height="50" relative="1" as="geometry">
            <mxPoint x="680" y="670" as="sourcePoint" />
            <mxPoint x="447" y="263" as="targetPoint" />
          </mxGeometry>
        </mxCell>
        <mxCell id="N3PtBMYw-amjRQk_lEWF-44" value="" style="endArrow=none;html=1;rounded=0;entryX=1;entryY=0.5;entryDx=0;entryDy=0;" edge="1" parent="1" target="N3PtBMYw-amjRQk_lEWF-26">
          <mxGeometry width="50" height="50" relative="1" as="geometry">
            <mxPoint x="680" y="670" as="sourcePoint" />
            <mxPoint x="448" y="353" as="targetPoint" />
          </mxGeometry>
        </mxCell>
        <mxCell id="N3PtBMYw-amjRQk_lEWF-45" value="" style="endArrow=none;html=1;rounded=0;entryX=1;entryY=0.5;entryDx=0;entryDy=0;" edge="1" parent="1" target="N3PtBMYw-amjRQk_lEWF-3">
          <mxGeometry width="50" height="50" relative="1" as="geometry">
            <mxPoint x="680" y="670" as="sourcePoint" />
            <mxPoint x="448" y="448" as="targetPoint" />
          </mxGeometry>
        </mxCell>
        <mxCell id="N3PtBMYw-amjRQk_lEWF-46" value="" style="endArrow=none;html=1;rounded=0;entryX=1;entryY=0.5;entryDx=0;entryDy=0;" edge="1" parent="1" target="N3PtBMYw-amjRQk_lEWF-5">
          <mxGeometry width="50" height="50" relative="1" as="geometry">
            <mxPoint x="680" y="670" as="sourcePoint" />
            <mxPoint x="448" y="743" as="targetPoint" />
          </mxGeometry>
        </mxCell>
        <mxCell id="N3PtBMYw-amjRQk_lEWF-47" value="" style="endArrow=none;html=1;rounded=0;entryX=1;entryY=0.5;entryDx=0;entryDy=0;" edge="1" parent="1" target="N3PtBMYw-amjRQk_lEWF-6">
          <mxGeometry width="50" height="50" relative="1" as="geometry">
            <mxPoint x="680" y="670" as="sourcePoint" />
            <mxPoint x="448" y="840" as="targetPoint" />
          </mxGeometry>
        </mxCell>
        <mxCell id="N3PtBMYw-amjRQk_lEWF-48" value="" style="endArrow=none;html=1;rounded=0;entryX=1;entryY=0.5;entryDx=0;entryDy=0;" edge="1" parent="1" target="N3PtBMYw-amjRQk_lEWF-7">
          <mxGeometry width="50" height="50" relative="1" as="geometry">
            <mxPoint x="680" y="670" as="sourcePoint" />
            <mxPoint x="448" y="936" as="targetPoint" />
          </mxGeometry>
        </mxCell>
        <mxCell id="N3PtBMYw-amjRQk_lEWF-49" value="" style="endArrow=none;html=1;rounded=0;entryX=1;entryY=0.5;entryDx=0;entryDy=0;" edge="1" parent="1" target="N3PtBMYw-amjRQk_lEWF-8">
          <mxGeometry width="50" height="50" relative="1" as="geometry">
            <mxPoint x="680" y="670" as="sourcePoint" />
            <mxPoint x="448" y="1041" as="targetPoint" />
          </mxGeometry>
        </mxCell>
        <mxCell id="N3PtBMYw-amjRQk_lEWF-50" value="" style="endArrow=none;html=1;rounded=0;entryX=1;entryY=0.5;entryDx=0;entryDy=0;" edge="1" parent="1" target="N3PtBMYw-amjRQk_lEWF-9">
          <mxGeometry width="50" height="50" relative="1" as="geometry">
            <mxPoint x="680" y="670" as="sourcePoint" />
            <mxPoint x="447" y="1141" as="targetPoint" />
          </mxGeometry>
        </mxCell>
      </root>
    </mxGraphModel>
  </diagram>
  <diagram id="YT1tJq4Qsk5LsMvE2h4k" name="Page-2">
    <mxGraphModel dx="648" dy="645" grid="1" gridSize="10" guides="1" tooltips="1" connect="1" arrows="1" fold="1" page="1" pageScale="1" pageWidth="827" pageHeight="1169" math="0" shadow="0">
      <root>
        <mxCell id="0" />
        <mxCell id="1" parent="0" />
        <mxCell id="cmk41HGg0VPaDrP53oD7-1" value="Letter" style="swimlane;childLayout=stackLayout;horizontal=1;startSize=50;horizontalStack=0;rounded=1;fontSize=14;fontStyle=0;strokeWidth=2;resizeParent=0;resizeLast=1;shadow=0;dashed=0;align=center;arcSize=4;whiteSpace=wrap;html=1;" vertex="1" parent="1">
          <mxGeometry x="350" y="440" width="160" height="190" as="geometry">
            <mxRectangle x="240" y="560" width="80" height="50" as="alternateBounds" />
          </mxGeometry>
        </mxCell>
        <mxCell id="cmk41HGg0VPaDrP53oD7-2" value="+ id&lt;br&gt;+ letter_no&lt;br&gt;+ letter_date&lt;br&gt;+ date_received&lt;br&gt;+ regarding&lt;br&gt;+ department_id&lt;br&gt;+ sender_id&lt;br&gt;+ letter_file&lt;br&gt;+ letter_type&lt;br&gt;" style="align=left;strokeColor=none;fillColor=none;spacingLeft=4;fontSize=12;verticalAlign=top;resizable=0;rotatable=0;part=1;html=1;" vertex="1" parent="cmk41HGg0VPaDrP53oD7-1">
          <mxGeometry y="50" width="160" height="260" as="geometry" />
        </mxCell>
        <mxCell id="cmk41HGg0VPaDrP53oD7-11" value="" style="line;strokeWidth=1;rotatable=0;dashed=0;labelPosition=right;align=left;verticalAlign=middle;spacingTop=0;spacingLeft=6;points=[];portConstraint=eastwest;" vertex="1" parent="cmk41HGg0VPaDrP53oD7-1">
          <mxGeometry y="310" width="160" height="-120" as="geometry" />
        </mxCell>
        <mxCell id="cmk41HGg0VPaDrP53oD7-3" value="Department" style="swimlane;childLayout=stackLayout;horizontal=1;startSize=50;horizontalStack=0;rounded=1;fontSize=14;fontStyle=0;strokeWidth=2;resizeParent=0;resizeLast=1;shadow=0;dashed=0;align=center;arcSize=4;whiteSpace=wrap;html=1;" vertex="1" parent="1">
          <mxGeometry x="560" y="440" width="160" height="120" as="geometry" />
        </mxCell>
        <mxCell id="cmk41HGg0VPaDrP53oD7-4" value="+ id&lt;br&gt;+ name" style="align=left;strokeColor=none;fillColor=none;spacingLeft=4;fontSize=12;verticalAlign=top;resizable=0;rotatable=0;part=1;html=1;" vertex="1" parent="cmk41HGg0VPaDrP53oD7-3">
          <mxGeometry y="50" width="160" height="70" as="geometry" />
        </mxCell>
        <mxCell id="cmk41HGg0VPaDrP53oD7-5" value="Sender" style="swimlane;childLayout=stackLayout;horizontal=1;startSize=50;horizontalStack=0;rounded=1;fontSize=14;fontStyle=0;strokeWidth=2;resizeParent=0;resizeLast=1;shadow=0;dashed=0;align=center;arcSize=4;whiteSpace=wrap;html=1;" vertex="1" parent="1">
          <mxGeometry x="140" y="440" width="160" height="140" as="geometry" />
        </mxCell>
        <mxCell id="cmk41HGg0VPaDrP53oD7-6" value="+ id&lt;br&gt;+ name&lt;br&gt;+ address&lt;br&gt;+ phone&lt;br&gt;+ email" style="align=left;strokeColor=none;fillColor=none;spacingLeft=4;fontSize=12;verticalAlign=top;resizable=0;rotatable=0;part=1;html=1;" vertex="1" parent="cmk41HGg0VPaDrP53oD7-5">
          <mxGeometry y="50" width="160" height="90" as="geometry" />
        </mxCell>
        <mxCell id="cmk41HGg0VPaDrP53oD7-7" value="Users" style="swimlane;childLayout=stackLayout;horizontal=1;startSize=50;horizontalStack=0;rounded=1;fontSize=14;fontStyle=0;strokeWidth=2;resizeParent=0;resizeLast=1;shadow=0;dashed=0;align=center;arcSize=4;whiteSpace=wrap;html=1;" vertex="1" parent="1">
          <mxGeometry x="350" y="170" width="160" height="140" as="geometry" />
        </mxCell>
        <mxCell id="cmk41HGg0VPaDrP53oD7-8" value="+ id&lt;br&gt;+ name&lt;br&gt;- email&lt;br&gt;- password&lt;br&gt;+ profile&lt;br&gt;" style="align=left;strokeColor=none;fillColor=none;spacingLeft=4;fontSize=12;verticalAlign=top;resizable=0;rotatable=0;part=1;html=1;" vertex="1" parent="cmk41HGg0VPaDrP53oD7-7">
          <mxGeometry y="50" width="160" height="90" as="geometry" />
        </mxCell>
        <mxCell id="cmk41HGg0VPaDrP53oD7-16" value="" style="endArrow=none;html=1;rounded=0;entryX=0.5;entryY=0;entryDx=0;entryDy=0;exitX=-0.008;exitY=0.228;exitDx=0;exitDy=0;exitPerimeter=0;" edge="1" parent="1" source="cmk41HGg0VPaDrP53oD7-8" target="cmk41HGg0VPaDrP53oD7-5">
          <mxGeometry width="50" height="50" relative="1" as="geometry">
            <mxPoint x="320" y="280" as="sourcePoint" />
            <mxPoint x="480" y="500" as="targetPoint" />
            <Array as="points">
              <mxPoint x="220" y="240" />
            </Array>
          </mxGeometry>
        </mxCell>
        <mxCell id="cmk41HGg0VPaDrP53oD7-18" value="" style="endArrow=none;html=1;rounded=0;entryX=0.5;entryY=0;entryDx=0;entryDy=0;exitX=1.006;exitY=0.213;exitDx=0;exitDy=0;exitPerimeter=0;" edge="1" parent="1" source="cmk41HGg0VPaDrP53oD7-8" target="cmk41HGg0VPaDrP53oD7-3">
          <mxGeometry width="50" height="50" relative="1" as="geometry">
            <mxPoint x="689" y="251" as="sourcePoint" />
            <mxPoint x="560" y="450" as="targetPoint" />
            <Array as="points">
              <mxPoint x="640" y="239" />
              <mxPoint x="640" y="320" />
            </Array>
          </mxGeometry>
        </mxCell>
        <mxCell id="cmk41HGg0VPaDrP53oD7-19" value="" style="endArrow=none;html=1;rounded=0;entryX=0.5;entryY=1;entryDx=0;entryDy=0;exitX=0.5;exitY=0;exitDx=0;exitDy=0;" edge="1" parent="1" source="cmk41HGg0VPaDrP53oD7-1" target="cmk41HGg0VPaDrP53oD7-8">
          <mxGeometry width="50" height="50" relative="1" as="geometry">
            <mxPoint x="390" y="440" as="sourcePoint" />
            <mxPoint x="440" y="390" as="targetPoint" />
          </mxGeometry>
        </mxCell>
      </root>
    </mxGraphModel>
  </diagram>
</mxfile>
